<svg xmlns="http://www.w3.org/2000/svg" xmlns:xlink="http://www.w3.org/1999/xlink" width="1040" height="711.3"><rect width="1040" height="711.3" rx="5" ry="5" class="a"/><svg y="0%" x="0%"><circle cx="20" cy="20" r="6" fill="#ff5f58"/><circle cx="40" cy="20" r="6" fill="#ffbd2e"/><circle cx="60" cy="20" r="6" fill="#18c132"/></svg><svg height="651.3" viewBox="0 0 100 65.13" width="1000" x="15" xmlns="http://www.w3.org/2000/svg" xmlns:xlink="http://www.w3.org/1999/xlink" y="50"><style>@keyframes o{0%{transform:translateX(0)}1.6%{transform:translateX(-100px)}3.2%{transform:translateX(-200px)}4.8%{transform:translateX(-300px)}6.4%{transform:translateX(-400px)}8%{transform:translateX(-500px)}9.7%{transform:translateX(-600px)}11.3%{transform:translateX(-700px)}12.9%{transform:translateX(-800px)}14.5%{transform:translateX(-900px)}16.1%{transform:translateX(-1000px)}17.8%{transform:translateX(-1100px)}19.4%{transform:translateX(-1200px)}21%{transform:translateX(-1300px)}22.6%{transform:translateX(-1400px)}24.2%{transform:translateX(-1500px)}25.9%{transform:translateX(-1600px)}27.5%{transform:translateX(-1700px)}29.1%{transform:translateX(-1800px)}30.7%{transform:translateX(-1900px)}32.3%{transform:translateX(-2000px)}34%{transform:translateX(-2100px)}35.6%{transform:translateX(-2200px)}37.2%{transform:translateX(-2300px)}38.8%{transform:translateX(-2400px)}40.4%{transform:translateX(-2500px)}41.6%{transform:translateX(-3000px)}41.7%{transform:translateX(-4200px)}48.5%{transform:translateX(-4300px)}55.3%{transform:translateX(-4400px)}62.1%{transform:translateX(-4500px)}68.9%{transform:translateX(-4600px)}75.7%{transform:translateX(-4700px)}82.5%{transform:translateX(-4800px)}89.3%{transform:translateX(-4900px)}96.1%{transform:translateX(-5000px)}to{transform:translateX(-5100px)}}.a{fill:#282d35}.f{fill:#b9c0cb;white-space:pre}.g{fill:gold}.h,.i,.j,.k,.l{white-space:pre}.i{fill:#66c2cd;font-weight:700}.j,.k,.l{fill:#d290e4}.k,.l{fill:#d290e3}.l{fill:#b9c0cb;font-weight:700}</style><g font-family="Monaco,Consolas,Menlo,'Bitstream Vera Sans Mono','Powerline Symbols',monospace" font-size="1.67"><defs><symbol id="1"><text y="1.67" class="f">$</text><text x="2.004" y="1.67" class="f">delirium-watch</text></symbol><symbol id="2"><text y="1.67" class="f">$</text><text x="2.004" y="1.67" class="f">delirium-watch</text><text x="17.034" y="1.67" class="f">demo-data</text></symbol><symbol id="3"><path class="g" d="M0 0h6v2.171H0z"/><text y="1.67" class="h">Wrote</text><path class="g" d="M6.012 0h2v2.171h-2z"/><text x="6.012" y="1.67" class="i">50</text><text x="9.018" y="1.67" class="f">synthetic</text><text x="19.038" y="1.67" class="f">patients</text><text x="28.056" y="1.67" class="f">to</text><text x="31.062" y="1.67" class="j">/agent/repos/delirium-watch/data/</text><text x="64.128" y="1.67" class="k">sample</text></symbol><symbol id="4"><text x="70.14" y="1.67" class="f">Parquet:</text><text x="79.158" y="1.67" class="j">/agent/repos/delirium</text></symbol><symbol id="5"><text y="1.67" class="j">-watch/data/sample/</text><text x="19.038" y="1.67" class="k">cohort.parquet</text></symbol><symbol id="6"><text x="33.066" y="1.67" class="f">Included:</text><text x="43.086" y="1.67" class="i">49</text><text x="48.096" y="1.67" class="f">Excluded</text><text x="57.114" y="1.67" class="l">(</text><text x="58.116" y="1.67" class="f">comfort</text><text x="66.132" y="1.67" class="f">care</text><text x="70.14" y="1.67" class="l">)</text><text x="71.142" y="1.67" class="f">:</text><text x="73.146" y="1.67" class="i">1</text></symbol><symbol id="7"><text x="76.152" y="1.67" class="f">excluded</text><text x="85.17" y="1.67" class="f">ids:</text><text x="90.18" y="1.67" class="f">P004</text></symbol><symbol id="8"><text x="98.196" y="1.67" class="f">Ba</text></symbol><symbol id="9"><text y="1.67" class="f">se</text><text x="3.006" y="1.67" class="f">rate</text><text x="8.016" y="1.67" class="f">on</text><text x="11.022" y="1.67" class="f">included</text><text x="20.04" y="1.67" class="f">stays</text></symbol><symbol id="10"><text x="38.076" y="1.67" class="f">(any-time</text><text x="48.096" y="1.67" class="f">label)</text></symbol><symbol id="11"><text x="64.128" y="1.67" class="f">┏━━━━━━━━━━━━━━━┳━━━━┳━━━━━━━━━━━━┓</text></symbol><symbol id="12"><text x="99.198" y="1.67" class="f">┃</text></symbol><symbol id="13"><text x="1.002" y="1.67" class="l">label</text><text x="15.03" y="1.67" class="f">┃</text><text x="17.034" y="1.67" class="l">n+</text><text x="20.04" y="1.67" class="f">┃</text><text x="22.044" y="1.67" class="l">prevalence</text><text x="33.066" y="1.67" class="f">┃</text></symbol><symbol id="14"><text x="34.068" y="1.67" class="f">┡━━━━━━━━━━━━━━━╇━━━━╇━━━━━━━━━━━━┩</text></symbol><symbol id="15"><text x="69.138" y="1.67" class="f">│</text><text x="71.142" y="1.67" class="f">cam_icu</text><text x="85.17" y="1.67" class="f">│</text><text x="87.174" y="1.67" class="f">24</text><text x="90.18" y="1.67" class="f">│</text><text x="97.194" y="1.67" class="f">0.4</text></symbol><symbol id="16"><text y="1.67" class="f">90</text><text x="3.006" y="1.67" class="f">│</text></symbol><symbol id="17"><text x="4.008" y="1.67" class="f">│</text><text x="6.012" y="1.67" class="f">antipsychotic</text><text x="20.04" y="1.67" class="f">│</text><text x="22.044" y="1.67" class="f">21</text><text x="25.05" y="1.67" class="f">│</text><text x="32.064" y="1.67" class="f">0.429</text><text x="38.076" y="1.67" class="f">│</text></symbol><symbol id="18"><text x="39.078" y="1.67" class="f">│</text><text x="41.082" y="1.67" class="f">restraint</text><text x="55.11" y="1.67" class="f">│</text><text x="57.114" y="1.67" class="f">18</text><text x="60.12" y="1.67" class="f">│</text><text x="67.134" y="1.67" class="f">0.367</text><text x="73.146" y="1.67" class="f">│</text></symbol><symbol id="19"><text x="74.148" y="1.67" class="f">└───────────────┴────┴────</text></symbol><symbol id="20"><text y="1.67" class="f">────────┘</text></symbol><symbol id="21"><text x="9.018" y="1.67" class="f">Synthetic</text><text x="19.038" y="1.67" class="f">only.</text><text x="25.05" y="1.67" class="f">No</text><text x="28.056" y="1.67" class="f">MIMIC</text><text x="34.068" y="1.67" class="f">bytes.</text><text x="41.082" y="1.67" class="f">Not</text><text x="45.09" y="1.67" class="f">a</text><text x="47.094" y="1.67" class="f">population</text><text x="58.116" y="1.67" class="f">incidence.</text></symbol><symbol id="22"><path class="g" d="M68.136 0h32v2.171h-32z"/><text x="68.136" y="1.67" class="h">Research tool only. Retrospectiv</text></symbol><symbol id="23"><path class="g" d="M0 0h68v2.171H0z"/><text y="1.67" class="h">e analysis on synthetic or de-identified data. This is not a medical</text></symbol><symbol id="24"><text x="68.136" y="1.67" class="f">device,</text><text x="76.152" y="1.67" class="f">not</text><text x="80.16" y="1.67" class="f">a</text><text x="82.164" y="1.67" class="f">diagnostic,</text><text x="94.188" y="1.67" class="f">and</text><text x="98.196" y="1.67" class="f">no</text></symbol><symbol id="25"><text y="1.67" class="f">t</text><text x="2.004" y="1.67" class="f">for</text><text x="6.012" y="1.67" class="f">patient</text><text x="14.028" y="1.67" class="f">care</text><text x="19.038" y="1.67" class="f">or</text><text x="22.044" y="1.67" class="f">clinical</text><text x="31.062" y="1.67" class="f">deployment.</text></symbol><symbol id="a"><path fill="transparent" d="M0 0h100v31H0z"/></symbol><symbol id="b"><path fill="#6f7683" d="M0 0h1.102v2.171H0z"/></symbol></defs><path class="a" d="M0 0h100v65.13H0z"/><g style="animation-duration:5.1427s;animation-iteration-count:infinite;animation-name:o;animation-timing-function:steps(1,end)"><svg width="5200"><svg><use xlink:href="#a"/><use xlink:href="#b" x="-.004"/></svg><svg x="100"><use xlink:href="#a"/><use xlink:href="#b" x="1.996"/><text y="1.67" class="f">$</text></svg><svg x="200"><use xlink:href="#a"/><use xlink:href="#b" x="2.996"/><text y="1.67" class="f">$</text><text x="2.004" y="1.67" class="f">d</text></svg><svg x="300"><use xlink:href="#a"/><use xlink:href="#b" x="3.996"/><text y="1.67" class="f">$</text><text x="2.004" y="1.67" class="f">de</text></svg><svg x="400"><use xlink:href="#a"/><use xlink:href="#b" x="4.996"/><text y="1.67" class="f">$</text><text x="2.004" y="1.67" class="f">del</text></svg><svg x="500"><use xlink:href="#a"/><use xlink:href="#b" x="5.996"/><text y="1.67" class="f">$</text><text x="2.004" y="1.67" class="f">deli</text></svg><svg x="600"><use xlink:href="#a"/><use xlink:href="#b" x="6.996"/><text y="1.67" class="f">$</text><text x="2.004" y="1.67" class="f">delir</text></svg><svg x="700"><use xlink:href="#a"/><use xlink:href="#b" x="7.996"/><text y="1.67" class="f">$</text><text x="2.004" y="1.67" class="f">deliri</text></svg><svg x="800"><use xlink:href="#a"/><use xlink:href="#b" x="8.996"/><text y="1.67" class="f">$</text><text x="2.004" y="1.67" class="f">deliriu</text></svg><svg x="900"><use xlink:href="#a"/><use xlink:href="#b" x="9.996"/><text y="1.67" class="f">$</text><text x="2.004" y="1.67" class="f">delirium</text></svg><svg x="1000"><use xlink:href="#a"/><use xlink:href="#b" x="10.996"/><text y="1.67" class="f">$</text><text x="2.004" y="1.67" class="f">delirium-</text></svg><svg x="1100"><use xlink:href="#a"/><use xlink:href="#b" x="11.996"/><text y="1.67" class="f">$</text><text x="2.004" y="1.67" class="f">delirium-w</text></svg><svg x="1200"><use xlink:href="#a"/><use xlink:href="#b" x="12.996"/><text y="1.67" class="f">$</text><text x="2.004" y="1.67" class="f">delirium-wa</text></svg><svg x="1300"><use xlink:href="#a"/><use xlink:href="#b" x="13.996"/><text y="1.67" class="f">$</text><text x="2.004" y="1.67" class="f">delirium-wat</text></svg><svg x="1400"><use xlink:href="#a"/><use xlink:href="#b" x="14.996"/><text y="1.67" class="f">$</text><text x="2.004" y="1.67" class="f">delirium-watc</text></svg><svg x="1500"><use xlink:href="#a"/><use xlink:href="#b" x="15.996"/><use xlink:href="#1"/></svg><svg x="1600"><use xlink:href="#a"/><use xlink:href="#b" x="16.996"/><use xlink:href="#1"/></svg><svg x="1700"><use xlink:href="#a"/><use xlink:href="#b" x="17.996"/><text y="1.67" class="f">$</text><text x="2.004" y="1.67" class="f">delirium-watch</text><text x="17.034" y="1.67" class="f">d</text></svg><svg x="1800"><use xlink:href="#a"/><use xlink:href="#b" x="18.996"/><text y="1.67" class="f">$</text><text x="2.004" y="1.67" class="f">delirium-watch</text><text x="17.034" y="1.67" class="f">de</text></svg><svg x="1900"><use xlink:href="#a"/><use xlink:href="#b" x="19.996"/><text y="1.67" class="f">$</text><text x="2.004" y="1.67" class="f">delirium-watch</text><text x="17.034" y="1.67" class="f">dem</text></svg><svg x="2000"><use xlink:href="#a"/><use xlink:href="#b" x="20.996"/><text y="1.67" class="f">$</text><text x="2.004" y="1.67" class="f">delirium-watch</text><text x="17.034" y="1.67" class="f">demo</text></svg><svg x="2100"><use xlink:href="#a"/><use xlink:href="#b" x="21.996"/><text y="1.67" class="f">$</text><text x="2.004" y="1.67" class="f">delirium-watch</text><text x="17.034" y="1.67" class="f">demo-</text></svg><svg x="2200"><use xlink:href="#a"/><use xlink:href="#b" x="22.996"/><text y="1.67" class="f">$</text><text x="2.004" y="1.67" class="f">delirium-watch</text><text x="17.034" y="1.67" class="f">demo-d</text></svg><svg x="2300"><use xlink:href="#a"/><use xlink:href="#b" x="23.996"/><text y="1.67" class="f">$</text><text x="2.004" y="1.67" class="f">delirium-watch</text><text x="17.034" y="1.67" class="f">demo-da</text></svg><svg x="2400"><use xlink:href="#a"/><use xlink:href="#b" x="24.996"/><text y="1.67" class="f">$</text><text x="2.004" y="1.67" class="f">delirium-watch</text><text x="17.034" y="1.67" class="f">demo-dat</text></svg><svg x="2500"><use xlink:href="#a"/><use xlink:href="#b" x="25.996"/><use xlink:href="#2"/></svg><svg x="2600"><use xlink:href="#a"/><use xlink:href="#b" x="-.004" y="2.146"/><use xlink:href="#2"/></svg><svg x="2700"><use xlink:href="#a"/><use xlink:href="#b" x="69.996" y="4.317"/><use xlink:href="#2"/><use xlink:href="#3" y="2.171"/></svg><svg x="2800"><use xlink:href="#a"/><use xlink:href="#b" x="32.996" y="8.659"/><use xlink:href="#2"/><use xlink:href="#3" y="2.171"/><use xlink:href="#4" y="4.342"/><use xlink:href="#5" y="6.513"/></svg><svg x="2900"><use xlink:href="#a"/><use xlink:href="#b" x="73.996" y="10.83"/><use xlink:href="#2"/><use xlink:href="#3" y="2.171"/><use xlink:href="#4" y="4.342"/><use xlink:href="#5" y="6.513"/><use xlink:href="#6" y="8.684"/></svg><svg x="3000"><use xlink:href="#a"/><use xlink:href="#b" x="93.996" y="13.001"/><use xlink:href="#2"/><use xlink:href="#3" y="2.171"/><use xlink:href="#4" y="4.342"/><use xlink:href="#5" y="6.513"/><use xlink:href="#6" y="8.684"/><use xlink:href="#7" y="10.855"/></svg><svg x="3100"><use xlink:href="#a"/><use xlink:href="#b" x="28.996" y="17.343"/><use xlink:href="#2"/><use xlink:href="#3" y="2.171"/><use xlink:href="#4" y="4.342"/><use xlink:href="#5" y="6.513"/><use xlink:href="#6" y="8.684"/><use xlink:href="#7" y="10.855"/><use xlink:href="#8" y="13.026"/><use xlink:href="#9" y="15.197"/></svg><svg x="3200"><use xlink:href="#a"/><use xlink:href="#b" x="63.996" y="19.514"/><use xlink:href="#2"/><use xlink:href="#3" y="2.171"/><use xlink:href="#4" y="4.342"/><use xlink:href="#5" y="6.513"/><use xlink:href="#6" y="8.684"/><use xlink:href="#7" y="10.855"/><use xlink:href="#8" y="13.026"/><use xlink:href="#9" y="15.197"/><use xlink:href="#10" y="17.368"/></svg><svg x="3300"><use xlink:href="#a"/><use xlink:href="#b" x="98.996" y="21.685"/><use xlink:href="#2"/><use xlink:href="#3" y="2.171"/><use xlink:href="#4" y="4.342"/><use xlink:href="#5" y="6.513"/><use xlink:href="#6" y="8.684"/><use xlink:href="#7" y="10.855"/><use xlink:href="#8" y="13.026"/><use xlink:href="#9" y="15.197"/><use xlink:href="#10" y="17.368"/><use xlink:href="#11" y="19.539"/></svg><svg x="3400"><use xlink:href="#a"/><use xlink:href="#b" x="33.996" y="26.027"/><use xlink:href="#2"/><use xlink:href="#3" y="2.171"/><use xlink:href="#4" y="4.342"/><use xlink:href="#5" y="6.513"/><use xlink:href="#6" y="8.684"/><use xlink:href="#7" y="10.855"/><use xlink:href="#8" y="13.026"/><use xlink:href="#9" y="15.197"/><use xlink:href="#10" y="17.368"/><use xlink:href="#11" y="19.539"/><use xlink:href="#12" y="21.71"/><use xlink:href="#13" y="23.881"/></svg><svg x="3500"><use xlink:href="#a"/><use xlink:href="#b" x="68.996" y="28.198"/><use xlink:href="#2"/><use xlink:href="#3" y="2.171"/><use xlink:href="#4" y="4.342"/><use xlink:href="#5" y="6.513"/><use xlink:href="#6" y="8.684"/><use xlink:href="#7" y="10.855"/><use xlink:href="#8" y="13.026"/><use xlink:href="#9" y="15.197"/><use xlink:href="#10" y="17.368"/><use xlink:href="#11" y="19.539"/><use xlink:href="#12" y="21.71"/><use xlink:href="#13" y="23.881"/><use xlink:href="#14" y="26.052"/></svg><svg x="3600"><use xlink:href="#a"/><use xlink:href="#b" x="3.996" y="32.54"/><use xlink:href="#2"/><use xlink:href="#3" y="2.171"/><use xlink:href="#4" y="4.342"/><use xlink:href="#5" y="6.513"/><use xlink:href="#6" y="8.684"/><use xlink:href="#7" y="10.855"/><use xlink:href="#8" y="13.026"/><use xlink:href="#9" y="15.197"/><use xlink:href="#10" y="17.368"/><use xlink:href="#11" y="19.539"/><use xlink:href="#12" y="21.71"/><use xlink:href="#13" y="23.881"/><use xlink:href="#14" y="26.052"/><use xlink:href="#15" y="28.223"/><use xlink:href="#16" y="30.394"/></svg><svg x="3700"><use xlink:href="#a"/><use xlink:href="#b" x="38.996" y="34.711"/><use xlink:href="#2"/><use xlink:href="#3" y="2.171"/><use xlink:href="#4" y="4.342"/><use xlink:href="#5" y="6.513"/><use xlink:href="#6" y="8.684"/><use xlink:href="#7" y="10.855"/><use xlink:href="#8" y="13.026"/><use xlink:href="#9" y="15.197"/><use xlink:href="#10" y="17.368"/><use xlink:href="#11" y="19.539"/><use xlink:href="#12" y="21.71"/><use xlink:href="#13" y="23.881"/><use xlink:href="#14" y="26.052"/><use xlink:href="#15" y="28.223"/><use xlink:href="#16" y="30.394"/><use xlink:href="#17" y="32.565"/></svg><svg x="3800"><use xlink:href="#a"/><use xlink:href="#b" x="73.996" y="36.882"/><use xlink:href="#2"/><use xlink:href="#3" y="2.171"/><use xlink:href="#4" y="4.342"/><use xlink:href="#5" y="6.513"/><use xlink:href="#6" y="8.684"/><use xlink:href="#7" y="10.855"/><use xlink:href="#8" y="13.026"/><use xlink:href="#9" y="15.197"/><use xlink:href="#10" y="17.368"/><use xlink:href="#11" y="19.539"/><use xlink:href="#12" y="21.71"/><use xlink:href="#13" y="23.881"/><use xlink:href="#14" y="26.052"/><use xlink:href="#15" y="28.223"/><use xlink:href="#16" y="30.394"/><use xlink:href="#17" y="32.565"/><use xlink:href="#18" y="34.736"/></svg><svg x="3900"><use xlink:href="#a"/><use xlink:href="#b" x="8.996" y="41.224"/><use xlink:href="#2"/><use xlink:href="#3" y="2.171"/><use xlink:href="#4" y="4.342"/><use xlink:href="#5" y="6.513"/><use xlink:href="#6" y="8.684"/><use xlink:href="#7" y="10.855"/><use xlink:href="#8" y="13.026"/><use xlink:href="#9" y="15.197"/><use xlink:href="#10" y="17.368"/><use xlink:href="#11" y="19.539"/><use xlink:href="#12" y="21.71"/><use xlink:href="#13" y="23.881"/><use xlink:href="#14" y="26.052"/><use xlink:href="#15" y="28.223"/><use xlink:href="#16" y="30.394"/><use xlink:href="#17" y="32.565"/><use xlink:href="#18" y="34.736"/><use xlink:href="#19" y="36.907"/><use xlink:href="#20" y="39.078"/></svg><svg x="4000"><use xlink:href="#a"/><use xlink:href="#b" x="67.996" y="43.395"/><use xlink:href="#2"/><use xlink:href="#3" y="2.171"/><use xlink:href="#4" y="4.342"/><use xlink:href="#5" y="6.513"/><use xlink:href="#6" y="8.684"/><use xlink:href="#7" y="10.855"/><use xlink:href="#8" y="13.026"/><use xlink:href="#9" y="15.197"/><use xlink:href="#10" y="17.368"/><use xlink:href="#11" y="19.539"/><use xlink:href="#12" y="21.71"/><use xlink:href="#13" y="23.881"/><use xlink:href="#14" y="26.052"/><use xlink:href="#15" y="28.223"/><use xlink:href="#16" y="30.394"/><use xlink:href="#17" y="32.565"/><use xlink:href="#18" y="34.736"/><use xlink:href="#19" y="36.907"/><use xlink:href="#20" y="39.078"/><use xlink:href="#21" y="41.249"/></svg><svg x="4100"><use xlink:href="#a"/><use xlink:href="#b" x="67.996" y="47.737"/><use xlink:href="#2"/><use xlink:href="#3" y="2.171"/><use xlink:href="#4" y="4.342"/><use xlink:href="#5" y="6.513"/><use xlink:href="#6" y="8.684"/><use xlink:href="#7" y="10.855"/><use xlink:href="#8" y="13.026"/><use xlink:href="#9" y="15.197"/><use xlink:href="#10" y="17.368"/><use xlink:href="#11" y="19.539"/><use xlink:href="#12" y="21.71"/><use xlink:href="#13" y="23.881"/><use xlink:href="#14" y="26.052"/><use xlink:href="#15" y="28.223"/><use xlink:href="#16" y="30.394"/><use xlink:href="#17" y="32.565"/><use xlink:href="#18" y="34.736"/><use xlink:href="#19" y="36.907"/><use xlink:href="#20" y="39.078"/><use xlink:href="#21" y="41.249"/><use xlink:href="#22" y="43.42"/><use xlink:href="#23" y="45.591"/></svg><svg x="4200"><use xlink:href="#a"/><use xlink:href="#b" x="41.996" y="52.079"/><use xlink:href="#2"/><use xlink:href="#3" y="2.171"/><use xlink:href="#4" y="4.342"/><use xlink:href="#5" y="6.513"/><use xlink:href="#6" y="8.684"/><use xlink:href="#7" y="10.855"/><use xlink:href="#8" y="13.026"/><use xlink:href="#9" y="15.197"/><use xlink:href="#10" y="17.368"/><use xlink:href="#11" y="19.539"/><use xlink:href="#12" y="21.71"/><use xlink:href="#13" y="23.881"/><use xlink:href="#14" y="26.052"/><use xlink:href="#15" y="28.223"/><use xlink:href="#16" y="30.394"/><use xlink:href="#17" y="32.565"/><use xlink:href="#18" y="34.736"/><use xlink:href="#19" y="36.907"/><use xlink:href="#20" y="39.078"/><use xlink:href="#21" y="41.249"/><use xlink:href="#22" y="43.42"/><use xlink:href="#23" y="45.591"/><use xlink:href="#24" y="47.762"/><use xlink:href="#25" y="49.933"/></svg><svg x="4300"><use xlink:href="#a"/><use xlink:href="#b" x="41.996" y="52.079"/><use xlink:href="#2"/><use xlink:href="#3" y="2.171"/><use xlink:href="#4" y="4.342"/><use xlink:href="#5" y="6.513"/><use xlink:href="#6" y="8.684"/><use xlink:href="#7" y="10.855"/><use xlink:href="#8" y="13.026"/><use xlink:href="#9" y="15.197"/><use xlink:href="#10" y="17.368"/><use xlink:href="#11" y="19.539"/><use xlink:href="#12" y="21.71"/><use xlink:href="#13" y="23.881"/><use xlink:href="#14" y="26.052"/><use xlink:href="#15" y="28.223"/><use xlink:href="#16" y="30.394"/><use xlink:href="#17" y="32.565"/><use xlink:href="#18" y="34.736"/><use xlink:href="#19" y="36.907"/><use xlink:href="#20" y="39.078"/><use xlink:href="#21" y="41.249"/><use xlink:href="#22" y="43.42"/><use xlink:href="#23" y="45.591"/><use xlink:href="#24" y="47.762"/><use xlink:href="#25" y="49.933"/></svg><svg x="4400"><use xlink:href="#a"/><use xlink:href="#b" x="41.996" y="52.079"/><use xlink:href="#2"/><use xlink:href="#3" y="2.171"/><use xlink:href="#4" y="4.342"/><use xlink:href="#5" y="6.513"/><use xlink:href="#6" y="8.684"/><use xlink:href="#7" y="10.855"/><use xlink:href="#8" y="13.026"/><use xlink:href="#9" y="15.197"/><use xlink:href="#10" y="17.368"/><use xlink:href="#11" y="19.539"/><use xlink:href="#12" y="21.71"/><use xlink:href="#13" y="23.881"/><use xlink:href="#14" y="26.052"/><use xlink:href="#15" y="28.223"/><use xlink:href="#16" y="30.394"/><use xlink:href="#17" y="32.565"/><use xlink:href="#18" y="34.736"/><use xlink:href="#19" y="36.907"/><use xlink:href="#20" y="39.078"/><use xlink:href="#21" y="41.249"/><use xlink:href="#22" y="43.42"/><use xlink:href="#23" y="45.591"/><use xlink:href="#24" y="47.762"/><use xlink:href="#25" y="49.933"/></svg><svg x="4500"><use xlink:href="#a"/><use xlink:href="#b" x="41.996" y="52.079"/><use xlink:href="#2"/><use xlink:href="#3" y="2.171"/><use xlink:href="#4" y="4.342"/><use xlink:href="#5" y="6.513"/><use xlink:href="#6" y="8.684"/><use xlink:href="#7" y="10.855"/><use xlink:href="#8" y="13.026"/><use xlink:href="#9" y="15.197"/><use xlink:href="#10" y="17.368"/><use xlink:href="#11" y="19.539"/><use xlink:href="#12" y="21.71"/><use xlink:href="#13" y="23.881"/><use xlink:href="#14" y="26.052"/><use xlink:href="#15" y="28.223"/><use xlink:href="#16" y="30.394"/><use xlink:href="#17" y="32.565"/><use xlink:href="#18" y="34.736"/><use xlink:href="#19" y="36.907"/><use xlink:href="#20" y="39.078"/><use xlink:href="#21" y="41.249"/><use xlink:href="#22" y="43.42"/><use xlink:href="#23" y="45.591"/><use xlink:href="#24" y="47.762"/><use xlink:href="#25" y="49.933"/></svg><svg x="4600"><use xlink:href="#a"/><use xlink:href="#b" x="41.996" y="52.079"/><use xlink:href="#2"/><use xlink:href="#3" y="2.171"/><use xlink:href="#4" y="4.342"/><use xlink:href="#5" y="6.513"/><use xlink:href="#6" y="8.684"/><use xlink:href="#7" y="10.855"/><use xlink:href="#8" y="13.026"/><use xlink:href="#9" y="15.197"/><use xlink:href="#10" y="17.368"/><use xlink:href="#11" y="19.539"/><use xlink:href="#12" y="21.71"/><use xlink:href="#13" y="23.881"/><use xlink:href="#14" y="26.052"/><use xlink:href="#15" y="28.223"/><use xlink:href="#16" y="30.394"/><use xlink:href="#17" y="32.565"/><use xlink:href="#18" y="34.736"/><use xlink:href="#19" y="36.907"/><use xlink:href="#20" y="39.078"/><use xlink:href="#21" y="41.249"/><use xlink:href="#22" y="43.42"/><use xlink:href="#23" y="45.591"/><use xlink:href="#24" y="47.762"/><use xlink:href="#25" y="49.933"/></svg><svg x="4700"><use xlink:href="#a"/><use xlink:href="#b" x="41.996" y="52.079"/><use xlink:href="#2"/><use xlink:href="#3" y="2.171"/><use xlink:href="#4" y="4.342"/><use xlink:href="#5" y="6.513"/><use xlink:href="#6" y="8.684"/><use xlink:href="#7" y="10.855"/><use xlink:href="#8" y="13.026"/><use xlink:href="#9" y="15.197"/><use xlink:href="#10" y="17.368"/><use xlink:href="#11" y="19.539"/><use xlink:href="#12" y="21.71"/><use xlink:href="#13" y="23.881"/><use xlink:href="#14" y="26.052"/><use xlink:href="#15" y="28.223"/><use xlink:href="#16" y="30.394"/><use xlink:href="#17" y="32.565"/><use xlink:href="#18" y="34.736"/><use xlink:href="#19" y="36.907"/><use xlink:href="#20" y="39.078"/><use xlink:href="#21" y="41.249"/><use xlink:href="#22" y="43.42"/><use xlink:href="#23" y="45.591"/><use xlink:href="#24" y="47.762"/><use xlink:href="#25" y="49.933"/></svg><svg x="4800"><use xlink:href="#a"/><use xlink:href="#b" x="41.996" y="52.079"/><use xlink:href="#2"/><use xlink:href="#3" y="2.171"/><use xlink:href="#4" y="4.342"/><use xlink:href="#5" y="6.513"/><use xlink:href="#6" y="8.684"/><use xlink:href="#7" y="10.855"/><use xlink:href="#8" y="13.026"/><use xlink:href="#9" y="15.197"/><use xlink:href="#10" y="17.368"/><use xlink:href="#11" y="19.539"/><use xlink:href="#12" y="21.71"/><use xlink:href="#13" y="23.881"/><use xlink:href="#14" y="26.052"/><use xlink:href="#15" y="28.223"/><use xlink:href="#16" y="30.394"/><use xlink:href="#17" y="32.565"/><use xlink:href="#18" y="34.736"/><use xlink:href="#19" y="36.907"/><use xlink:href="#20" y="39.078"/><use xlink:href="#21" y="41.249"/><use xlink:href="#22" y="43.42"/><use xlink:href="#23" y="45.591"/><use xlink:href="#24" y="47.762"/><use xlink:href="#25" y="49.933"/></svg><svg x="4900"><use xlink:href="#a"/><use xlink:href="#b" x="41.996" y="52.079"/><use xlink:href="#2"/><use xlink:href="#3" y="2.171"/><use xlink:href="#4" y="4.342"/><use xlink:href="#5" y="6.513"/><use xlink:href="#6" y="8.684"/><use xlink:href="#7" y="10.855"/><use xlink:href="#8" y="13.026"/><use xlink:href="#9" y="15.197"/><use xlink:href="#10" y="17.368"/><use xlink:href="#11" y="19.539"/><use xlink:href="#12" y="21.71"/><use xlink:href="#13" y="23.881"/><use xlink:href="#14" y="26.052"/><use xlink:href="#15" y="28.223"/><use xlink:href="#16" y="30.394"/><use xlink:href="#17" y="32.565"/><use xlink:href="#18" y="34.736"/><use xlink:href="#19" y="36.907"/><use xlink:href="#20" y="39.078"/><use xlink:href="#21" y="41.249"/><use xlink:href="#22" y="43.42"/><use xlink:href="#23" y="45.591"/><use xlink:href="#24" y="47.762"/><use xlink:href="#25" y="49.933"/></svg><svg x="5000"><use xlink:href="#a"/><use xlink:href="#b" x="41.996" y="52.079"/><use xlink:href="#2"/><use xlink:href="#3" y="2.171"/><use xlink:href="#4" y="4.342"/><use xlink:href="#5" y="6.513"/><use xlink:href="#6" y="8.684"/><use xlink:href="#7" y="10.855"/><use xlink:href="#8" y="13.026"/><use xlink:href="#9" y="15.197"/><use xlink:href="#10" y="17.368"/><use xlink:href="#11" y="19.539"/><use xlink:href="#12" y="21.71"/><use xlink:href="#13" y="23.881"/><use xlink:href="#14" y="26.052"/><use xlink:href="#15" y="28.223"/><use xlink:href="#16" y="30.394"/><use xlink:href="#17" y="32.565"/><use xlink:href="#18" y="34.736"/><use xlink:href="#19" y="36.907"/><use xlink:href="#20" y="39.078"/><use xlink:href="#21" y="41.249"/><use xlink:href="#22" y="43.42"/><use xlink:href="#23" y="45.591"/><use xlink:href="#24" y="47.762"/><use xlink:href="#25" y="49.933"/></svg><svg x="5100"><use xlink:href="#a"/><use xlink:href="#b" x="41.996" y="52.079"/><use xlink:href="#2"/><use xlink:href="#3" y="2.171"/><use xlink:href="#4" y="4.342"/><use xlink:href="#5" y="6.513"/><use xlink:href="#6" y="8.684"/><use xlink:href="#7" y="10.855"/><use xlink:href="#8" y="13.026"/><use xlink:href="#9" y="15.197"/><use xlink:href="#10" y="17.368"/><use xlink:href="#11" y="19.539"/><use xlink:href="#12" y="21.71"/><use xlink:href="#13" y="23.881"/><use xlink:href="#14" y="26.052"/><use xlink:href="#15" y="28.223"/><use xlink:href="#16" y="30.394"/><use xlink:href="#17" y="32.565"/><use xlink:href="#18" y="34.736"/><use xlink:href="#19" y="36.907"/><use xlink:href="#20" y="39.078"/><use xlink:href="#21" y="41.249"/><use xlink:href="#22" y="43.42"/><use xlink:href="#23" y="45.591"/><use xlink:href="#24" y="47.762"/><use xlink:href="#25" y="49.933"/></svg></svg></g></g></svg></svg>